<mxfile host="app.diagrams.net" modified="2023-09-28T07:16:47.547Z" agent="Mozilla/5.0 (Windows NT 10.0; Win64; x64) AppleWebKit/537.36 (KHTML, like Gecko) Chrome/117.0.0.0 Safari/537.36" etag="Vv5l6a_yDyOzLPww645g" version="21.8.0" type="device">
  <diagram id="C5RBs43oDa-KdzZeNtuy" name="Page-1">
    <mxGraphModel dx="2626" dy="1003" grid="1" gridSize="10" guides="1" tooltips="1" connect="1" arrows="1" fold="1" page="1" pageScale="1" pageWidth="827" pageHeight="1169" math="0" shadow="0">
      <root>
        <mxCell id="WIyWlLk6GJQsqaUBKTNV-0" />
        <mxCell id="WIyWlLk6GJQsqaUBKTNV-1" parent="WIyWlLk6GJQsqaUBKTNV-0" />
        <mxCell id="YMdylm_ZdaBU3ZXP_qBa-23" value="" style="edgeStyle=orthogonalEdgeStyle;rounded=0;orthogonalLoop=1;jettySize=auto;html=1;" edge="1" parent="WIyWlLk6GJQsqaUBKTNV-1" source="WIyWlLk6GJQsqaUBKTNV-10" target="YMdylm_ZdaBU3ZXP_qBa-12">
          <mxGeometry relative="1" as="geometry" />
        </mxCell>
        <mxCell id="YMdylm_ZdaBU3ZXP_qBa-49" value="" style="edgeStyle=orthogonalEdgeStyle;rounded=0;orthogonalLoop=1;jettySize=auto;html=1;" edge="1" parent="WIyWlLk6GJQsqaUBKTNV-1" source="WIyWlLk6GJQsqaUBKTNV-10" target="YMdylm_ZdaBU3ZXP_qBa-48">
          <mxGeometry relative="1" as="geometry" />
        </mxCell>
        <mxCell id="WIyWlLk6GJQsqaUBKTNV-10" value="New Outgoing Referral??&amp;nbsp;" style="rhombus;whiteSpace=wrap;html=1;shadow=0;fontFamily=Helvetica;fontSize=12;align=center;strokeWidth=1;spacing=6;spacingTop=-4;fillColor=#f8cecc;strokeColor=#b85450;" parent="WIyWlLk6GJQsqaUBKTNV-1" vertex="1">
          <mxGeometry x="50" y="340" width="140" height="80" as="geometry" />
        </mxCell>
        <mxCell id="YMdylm_ZdaBU3ZXP_qBa-7" style="edgeStyle=orthogonalEdgeStyle;rounded=0;orthogonalLoop=1;jettySize=auto;html=1;entryX=0.5;entryY=0;entryDx=0;entryDy=0;" edge="1" parent="WIyWlLk6GJQsqaUBKTNV-1" source="WIyWlLk6GJQsqaUBKTNV-11" target="YMdylm_ZdaBU3ZXP_qBa-5">
          <mxGeometry relative="1" as="geometry">
            <Array as="points">
              <mxPoint x="120" y="200" />
            </Array>
          </mxGeometry>
        </mxCell>
        <mxCell id="YMdylm_ZdaBU3ZXP_qBa-8" style="edgeStyle=orthogonalEdgeStyle;rounded=0;orthogonalLoop=1;jettySize=auto;html=1;entryX=0.5;entryY=0;entryDx=0;entryDy=0;" edge="1" parent="WIyWlLk6GJQsqaUBKTNV-1" source="WIyWlLk6GJQsqaUBKTNV-11" target="YMdylm_ZdaBU3ZXP_qBa-6">
          <mxGeometry relative="1" as="geometry" />
        </mxCell>
        <mxCell id="WIyWlLk6GJQsqaUBKTNV-11" value="Patients&amp;gt;Search patient&amp;gt;Open Patient profile&amp;gt;Registration&amp;gt; Referrals" style="rounded=1;whiteSpace=wrap;html=1;fontSize=12;glass=0;strokeWidth=1;shadow=0;fillColor=#dae8fc;strokeColor=#6c8ebf;" parent="WIyWlLk6GJQsqaUBKTNV-1" vertex="1">
          <mxGeometry x="240" y="170" width="220" height="60" as="geometry" />
        </mxCell>
        <mxCell id="YMdylm_ZdaBU3ZXP_qBa-9" value="" style="edgeStyle=orthogonalEdgeStyle;rounded=0;orthogonalLoop=1;jettySize=auto;html=1;" edge="1" parent="WIyWlLk6GJQsqaUBKTNV-1" source="YMdylm_ZdaBU3ZXP_qBa-2" target="WIyWlLk6GJQsqaUBKTNV-11">
          <mxGeometry relative="1" as="geometry" />
        </mxCell>
        <mxCell id="YMdylm_ZdaBU3ZXP_qBa-2" value="Start" style="ellipse;whiteSpace=wrap;html=1;fillColor=#d5e8d4;strokeColor=#125916;" vertex="1" parent="WIyWlLk6GJQsqaUBKTNV-1">
          <mxGeometry x="300" y="70" width="100" height="50" as="geometry" />
        </mxCell>
        <mxCell id="YMdylm_ZdaBU3ZXP_qBa-22" value="" style="edgeStyle=orthogonalEdgeStyle;rounded=0;orthogonalLoop=1;jettySize=auto;html=1;" edge="1" parent="WIyWlLk6GJQsqaUBKTNV-1" source="YMdylm_ZdaBU3ZXP_qBa-5" target="WIyWlLk6GJQsqaUBKTNV-10">
          <mxGeometry relative="1" as="geometry" />
        </mxCell>
        <mxCell id="YMdylm_ZdaBU3ZXP_qBa-5" value="Outgoing Referrals" style="rounded=1;whiteSpace=wrap;html=1;fontSize=12;glass=0;strokeWidth=1;shadow=0;fillColor=#dae8fc;strokeColor=#6c8ebf;" vertex="1" parent="WIyWlLk6GJQsqaUBKTNV-1">
          <mxGeometry x="10" y="250" width="220" height="60" as="geometry" />
        </mxCell>
        <mxCell id="YMdylm_ZdaBU3ZXP_qBa-28" style="edgeStyle=orthogonalEdgeStyle;rounded=0;orthogonalLoop=1;jettySize=auto;html=1;entryX=0.5;entryY=0;entryDx=0;entryDy=0;" edge="1" parent="WIyWlLk6GJQsqaUBKTNV-1" source="YMdylm_ZdaBU3ZXP_qBa-6" target="YMdylm_ZdaBU3ZXP_qBa-24">
          <mxGeometry relative="1" as="geometry" />
        </mxCell>
        <mxCell id="YMdylm_ZdaBU3ZXP_qBa-6" value="&amp;nbsp;Incoming Refferals" style="rounded=1;whiteSpace=wrap;html=1;fontSize=12;glass=0;strokeWidth=1;shadow=0;fillColor=#dae8fc;strokeColor=#6c8ebf;" vertex="1" parent="WIyWlLk6GJQsqaUBKTNV-1">
          <mxGeometry x="480" y="250" width="220" height="60" as="geometry" />
        </mxCell>
        <mxCell id="YMdylm_ZdaBU3ZXP_qBa-18" style="edgeStyle=orthogonalEdgeStyle;rounded=0;orthogonalLoop=1;jettySize=auto;html=1;entryX=0;entryY=0.5;entryDx=0;entryDy=0;" edge="1" parent="WIyWlLk6GJQsqaUBKTNV-1" source="YMdylm_ZdaBU3ZXP_qBa-12" target="YMdylm_ZdaBU3ZXP_qBa-16">
          <mxGeometry relative="1" as="geometry">
            <Array as="points">
              <mxPoint x="120" y="540" />
            </Array>
          </mxGeometry>
        </mxCell>
        <mxCell id="YMdylm_ZdaBU3ZXP_qBa-12" value="Search Referred To provider from library by writing initials.&amp;nbsp;" style="rounded=1;whiteSpace=wrap;html=1;fontSize=12;glass=0;strokeWidth=1;shadow=0;fillColor=#dae8fc;strokeColor=#6c8ebf;" vertex="1" parent="WIyWlLk6GJQsqaUBKTNV-1">
          <mxGeometry x="10" y="440" width="220" height="60" as="geometry" />
        </mxCell>
        <mxCell id="YMdylm_ZdaBU3ZXP_qBa-45" style="edgeStyle=orthogonalEdgeStyle;rounded=0;orthogonalLoop=1;jettySize=auto;html=1;entryX=1;entryY=0.5;entryDx=0;entryDy=0;" edge="1" parent="WIyWlLk6GJQsqaUBKTNV-1" source="YMdylm_ZdaBU3ZXP_qBa-13" target="YMdylm_ZdaBU3ZXP_qBa-16">
          <mxGeometry relative="1" as="geometry">
            <Array as="points">
              <mxPoint x="590" y="540" />
            </Array>
          </mxGeometry>
        </mxCell>
        <mxCell id="YMdylm_ZdaBU3ZXP_qBa-13" value="Search Referred By provider from library by writing initials.&amp;nbsp;" style="rounded=1;whiteSpace=wrap;html=1;fontSize=12;glass=0;strokeWidth=1;shadow=0;fillColor=#dae8fc;strokeColor=#6c8ebf;" vertex="1" parent="WIyWlLk6GJQsqaUBKTNV-1">
          <mxGeometry x="480" y="440" width="220" height="60" as="geometry" />
        </mxCell>
        <mxCell id="YMdylm_ZdaBU3ZXP_qBa-20" value="" style="edgeStyle=orthogonalEdgeStyle;rounded=0;orthogonalLoop=1;jettySize=auto;html=1;" edge="1" parent="WIyWlLk6GJQsqaUBKTNV-1" source="YMdylm_ZdaBU3ZXP_qBa-16" target="YMdylm_ZdaBU3ZXP_qBa-19">
          <mxGeometry relative="1" as="geometry" />
        </mxCell>
        <mxCell id="YMdylm_ZdaBU3ZXP_qBa-16" value="Search Referral Reason from library by writing initials.&amp;nbsp;" style="rounded=1;whiteSpace=wrap;html=1;fontSize=12;glass=0;strokeWidth=1;shadow=0;fillColor=#dae8fc;strokeColor=#6c8ebf;" vertex="1" parent="WIyWlLk6GJQsqaUBKTNV-1">
          <mxGeometry x="240" y="510" width="220" height="60" as="geometry" />
        </mxCell>
        <mxCell id="YMdylm_ZdaBU3ZXP_qBa-30" value="" style="edgeStyle=orthogonalEdgeStyle;rounded=0;orthogonalLoop=1;jettySize=auto;html=1;" edge="1" parent="WIyWlLk6GJQsqaUBKTNV-1" source="YMdylm_ZdaBU3ZXP_qBa-19" target="YMdylm_ZdaBU3ZXP_qBa-21">
          <mxGeometry relative="1" as="geometry" />
        </mxCell>
        <mxCell id="YMdylm_ZdaBU3ZXP_qBa-19" value="Select Provider from dropdown." style="rounded=1;whiteSpace=wrap;html=1;fontSize=12;glass=0;strokeWidth=1;shadow=0;fillColor=#dae8fc;strokeColor=#6c8ebf;" vertex="1" parent="WIyWlLk6GJQsqaUBKTNV-1">
          <mxGeometry x="240" y="590" width="220" height="60" as="geometry" />
        </mxCell>
        <mxCell id="YMdylm_ZdaBU3ZXP_qBa-46" value="" style="edgeStyle=orthogonalEdgeStyle;rounded=0;orthogonalLoop=1;jettySize=auto;html=1;" edge="1" parent="WIyWlLk6GJQsqaUBKTNV-1" source="YMdylm_ZdaBU3ZXP_qBa-21" target="YMdylm_ZdaBU3ZXP_qBa-31">
          <mxGeometry relative="1" as="geometry" />
        </mxCell>
        <mxCell id="YMdylm_ZdaBU3ZXP_qBa-21" value="Open Attachment pop-up and u will be able to upload documents related to patients medical history. Then can sent in summary if it is checked." style="rounded=1;whiteSpace=wrap;html=1;fontSize=12;glass=0;strokeWidth=1;shadow=0;fillColor=#dae8fc;strokeColor=#6c8ebf;" vertex="1" parent="WIyWlLk6GJQsqaUBKTNV-1">
          <mxGeometry x="240" y="670" width="220" height="60" as="geometry" />
        </mxCell>
        <mxCell id="YMdylm_ZdaBU3ZXP_qBa-29" value="" style="edgeStyle=orthogonalEdgeStyle;rounded=0;orthogonalLoop=1;jettySize=auto;html=1;" edge="1" parent="WIyWlLk6GJQsqaUBKTNV-1" source="YMdylm_ZdaBU3ZXP_qBa-24" target="YMdylm_ZdaBU3ZXP_qBa-13">
          <mxGeometry relative="1" as="geometry" />
        </mxCell>
        <mxCell id="YMdylm_ZdaBU3ZXP_qBa-52" style="edgeStyle=orthogonalEdgeStyle;rounded=0;orthogonalLoop=1;jettySize=auto;html=1;entryX=0;entryY=0.5;entryDx=0;entryDy=0;" edge="1" parent="WIyWlLk6GJQsqaUBKTNV-1" source="YMdylm_ZdaBU3ZXP_qBa-24" target="YMdylm_ZdaBU3ZXP_qBa-47">
          <mxGeometry relative="1" as="geometry" />
        </mxCell>
        <mxCell id="YMdylm_ZdaBU3ZXP_qBa-24" value="New Incoming Referral??&amp;nbsp;" style="rhombus;whiteSpace=wrap;html=1;shadow=0;fontFamily=Helvetica;fontSize=12;align=center;strokeWidth=1;spacing=6;spacingTop=-4;fillColor=#f8cecc;strokeColor=#b85450;" vertex="1" parent="WIyWlLk6GJQsqaUBKTNV-1">
          <mxGeometry x="520" y="340" width="140" height="80" as="geometry" />
        </mxCell>
        <mxCell id="YMdylm_ZdaBU3ZXP_qBa-25" value="&lt;b&gt;Yes&lt;/b&gt;" style="text;html=1;strokeColor=none;fillColor=none;align=center;verticalAlign=middle;whiteSpace=wrap;rounded=0;" vertex="1" parent="WIyWlLk6GJQsqaUBKTNV-1">
          <mxGeometry x="120" y="410" width="60" height="30" as="geometry" />
        </mxCell>
        <mxCell id="YMdylm_ZdaBU3ZXP_qBa-26" value="&lt;b&gt;Yes&lt;/b&gt;" style="text;html=1;strokeColor=none;fillColor=none;align=center;verticalAlign=middle;whiteSpace=wrap;rounded=0;" vertex="1" parent="WIyWlLk6GJQsqaUBKTNV-1">
          <mxGeometry x="600" y="410" width="60" height="30" as="geometry" />
        </mxCell>
        <mxCell id="YMdylm_ZdaBU3ZXP_qBa-58" style="edgeStyle=orthogonalEdgeStyle;rounded=0;orthogonalLoop=1;jettySize=auto;html=1;entryX=0.5;entryY=0;entryDx=0;entryDy=0;" edge="1" parent="WIyWlLk6GJQsqaUBKTNV-1" source="YMdylm_ZdaBU3ZXP_qBa-31" target="YMdylm_ZdaBU3ZXP_qBa-57">
          <mxGeometry relative="1" as="geometry" />
        </mxCell>
        <mxCell id="YMdylm_ZdaBU3ZXP_qBa-61" style="edgeStyle=orthogonalEdgeStyle;rounded=0;orthogonalLoop=1;jettySize=auto;html=1;entryX=0.5;entryY=0;entryDx=0;entryDy=0;" edge="1" parent="WIyWlLk6GJQsqaUBKTNV-1" source="YMdylm_ZdaBU3ZXP_qBa-31" target="YMdylm_ZdaBU3ZXP_qBa-56">
          <mxGeometry relative="1" as="geometry" />
        </mxCell>
        <mxCell id="YMdylm_ZdaBU3ZXP_qBa-31" value="Add patients Diagnosis, Procedure and insurance along with other details." style="rounded=1;whiteSpace=wrap;html=1;fontSize=12;glass=0;strokeWidth=1;shadow=0;fillColor=#dae8fc;strokeColor=#6c8ebf;" vertex="1" parent="WIyWlLk6GJQsqaUBKTNV-1">
          <mxGeometry x="240" y="750" width="220" height="60" as="geometry" />
        </mxCell>
        <mxCell id="YMdylm_ZdaBU3ZXP_qBa-53" style="edgeStyle=orthogonalEdgeStyle;rounded=0;orthogonalLoop=1;jettySize=auto;html=1;entryX=1;entryY=0.5;entryDx=0;entryDy=0;" edge="1" parent="WIyWlLk6GJQsqaUBKTNV-1" source="YMdylm_ZdaBU3ZXP_qBa-47" target="YMdylm_ZdaBU3ZXP_qBa-13">
          <mxGeometry relative="1" as="geometry">
            <Array as="points">
              <mxPoint x="830" y="470" />
            </Array>
          </mxGeometry>
        </mxCell>
        <mxCell id="YMdylm_ZdaBU3ZXP_qBa-47" value="Edit the following information for incoming referral in same pattern." style="rounded=1;whiteSpace=wrap;html=1;fontSize=12;glass=0;strokeWidth=1;shadow=0;fillColor=#dae8fc;strokeColor=#6c8ebf;" vertex="1" parent="WIyWlLk6GJQsqaUBKTNV-1">
          <mxGeometry x="730" y="350" width="220" height="60" as="geometry" />
        </mxCell>
        <mxCell id="YMdylm_ZdaBU3ZXP_qBa-54" style="edgeStyle=orthogonalEdgeStyle;rounded=0;orthogonalLoop=1;jettySize=auto;html=1;entryX=0;entryY=0.75;entryDx=0;entryDy=0;" edge="1" parent="WIyWlLk6GJQsqaUBKTNV-1" source="YMdylm_ZdaBU3ZXP_qBa-48" target="YMdylm_ZdaBU3ZXP_qBa-12">
          <mxGeometry relative="1" as="geometry">
            <Array as="points">
              <mxPoint x="-110" y="485" />
            </Array>
          </mxGeometry>
        </mxCell>
        <mxCell id="YMdylm_ZdaBU3ZXP_qBa-48" value="Edit the following information for outgoing referral in same pattern." style="rounded=1;whiteSpace=wrap;html=1;fontSize=12;glass=0;strokeWidth=1;shadow=0;fillColor=#dae8fc;strokeColor=#6c8ebf;" vertex="1" parent="WIyWlLk6GJQsqaUBKTNV-1">
          <mxGeometry x="-220" y="350" width="220" height="60" as="geometry" />
        </mxCell>
        <mxCell id="YMdylm_ZdaBU3ZXP_qBa-50" value="&lt;b&gt;No&lt;/b&gt;" style="text;html=1;strokeColor=none;fillColor=none;align=center;verticalAlign=middle;whiteSpace=wrap;rounded=0;" vertex="1" parent="WIyWlLk6GJQsqaUBKTNV-1">
          <mxGeometry y="350" width="60" height="30" as="geometry" />
        </mxCell>
        <mxCell id="YMdylm_ZdaBU3ZXP_qBa-51" value="&lt;b&gt;No&lt;/b&gt;" style="text;html=1;strokeColor=none;fillColor=none;align=center;verticalAlign=middle;whiteSpace=wrap;rounded=0;" vertex="1" parent="WIyWlLk6GJQsqaUBKTNV-1">
          <mxGeometry x="660" y="350" width="60" height="30" as="geometry" />
        </mxCell>
        <mxCell id="YMdylm_ZdaBU3ZXP_qBa-67" value="" style="edgeStyle=orthogonalEdgeStyle;rounded=0;orthogonalLoop=1;jettySize=auto;html=1;" edge="1" parent="WIyWlLk6GJQsqaUBKTNV-1" source="YMdylm_ZdaBU3ZXP_qBa-55" target="YMdylm_ZdaBU3ZXP_qBa-65">
          <mxGeometry relative="1" as="geometry" />
        </mxCell>
        <mxCell id="YMdylm_ZdaBU3ZXP_qBa-69" style="edgeStyle=orthogonalEdgeStyle;rounded=0;orthogonalLoop=1;jettySize=auto;html=1;entryX=0.5;entryY=0;entryDx=0;entryDy=0;" edge="1" parent="WIyWlLk6GJQsqaUBKTNV-1" target="YMdylm_ZdaBU3ZXP_qBa-64">
          <mxGeometry relative="1" as="geometry">
            <mxPoint x="10" y="1010" as="sourcePoint" />
            <Array as="points">
              <mxPoint x="10" y="990" />
              <mxPoint x="-180" y="990" />
            </Array>
          </mxGeometry>
        </mxCell>
        <mxCell id="YMdylm_ZdaBU3ZXP_qBa-55" value="Save" style="rhombus;whiteSpace=wrap;html=1;shadow=0;fontFamily=Helvetica;fontSize=12;align=center;strokeWidth=1;spacing=6;spacingTop=-4;fillColor=#f8cecc;strokeColor=#b85450;" vertex="1" parent="WIyWlLk6GJQsqaUBKTNV-1">
          <mxGeometry x="-60" y="910" width="140" height="80" as="geometry" />
        </mxCell>
        <mxCell id="YMdylm_ZdaBU3ZXP_qBa-62" value="" style="edgeStyle=orthogonalEdgeStyle;rounded=0;orthogonalLoop=1;jettySize=auto;html=1;" edge="1" parent="WIyWlLk6GJQsqaUBKTNV-1" source="YMdylm_ZdaBU3ZXP_qBa-56" target="YMdylm_ZdaBU3ZXP_qBa-55">
          <mxGeometry relative="1" as="geometry" />
        </mxCell>
        <mxCell id="YMdylm_ZdaBU3ZXP_qBa-56" value="SOC Log for Outgoing." style="rounded=1;whiteSpace=wrap;html=1;fontSize=12;glass=0;strokeWidth=1;shadow=0;fillColor=#dae8fc;strokeColor=#6c8ebf;" vertex="1" parent="WIyWlLk6GJQsqaUBKTNV-1">
          <mxGeometry x="-100" y="830" width="220" height="60" as="geometry" />
        </mxCell>
        <mxCell id="YMdylm_ZdaBU3ZXP_qBa-82" value="" style="edgeStyle=orthogonalEdgeStyle;rounded=0;orthogonalLoop=1;jettySize=auto;html=1;" edge="1" parent="WIyWlLk6GJQsqaUBKTNV-1" source="YMdylm_ZdaBU3ZXP_qBa-57" target="YMdylm_ZdaBU3ZXP_qBa-75">
          <mxGeometry relative="1" as="geometry" />
        </mxCell>
        <mxCell id="YMdylm_ZdaBU3ZXP_qBa-57" value="SOC Log for Incoming." style="rounded=1;whiteSpace=wrap;html=1;fontSize=12;glass=0;strokeWidth=1;shadow=0;fillColor=#dae8fc;strokeColor=#6c8ebf;" vertex="1" parent="WIyWlLk6GJQsqaUBKTNV-1">
          <mxGeometry x="550" y="830" width="220" height="60" as="geometry" />
        </mxCell>
        <mxCell id="YMdylm_ZdaBU3ZXP_qBa-85" style="edgeStyle=orthogonalEdgeStyle;rounded=0;orthogonalLoop=1;jettySize=auto;html=1;entryX=0;entryY=0.5;entryDx=0;entryDy=0;" edge="1" parent="WIyWlLk6GJQsqaUBKTNV-1" source="YMdylm_ZdaBU3ZXP_qBa-64" target="YMdylm_ZdaBU3ZXP_qBa-83">
          <mxGeometry relative="1" as="geometry">
            <Array as="points">
              <mxPoint x="-180" y="1345" />
            </Array>
          </mxGeometry>
        </mxCell>
        <mxCell id="YMdylm_ZdaBU3ZXP_qBa-64" value="Save as In-house&amp;nbsp;" style="rounded=1;whiteSpace=wrap;html=1;fontSize=12;glass=0;strokeWidth=1;shadow=0;fillColor=#dae8fc;strokeColor=#6c8ebf;" vertex="1" parent="WIyWlLk6GJQsqaUBKTNV-1">
          <mxGeometry x="-240" y="1030" width="120" height="60" as="geometry" />
        </mxCell>
        <mxCell id="YMdylm_ZdaBU3ZXP_qBa-90" style="edgeStyle=orthogonalEdgeStyle;rounded=0;orthogonalLoop=1;jettySize=auto;html=1;" edge="1" parent="WIyWlLk6GJQsqaUBKTNV-1" source="YMdylm_ZdaBU3ZXP_qBa-65">
          <mxGeometry relative="1" as="geometry">
            <mxPoint x="10" y="1350" as="targetPoint" />
          </mxGeometry>
        </mxCell>
        <mxCell id="YMdylm_ZdaBU3ZXP_qBa-65" value="Mark as incomplete." style="rounded=1;whiteSpace=wrap;html=1;fontSize=12;glass=0;strokeWidth=1;shadow=0;fillColor=#dae8fc;strokeColor=#6c8ebf;" vertex="1" parent="WIyWlLk6GJQsqaUBKTNV-1">
          <mxGeometry x="-65" y="1030" width="150" height="60" as="geometry" />
        </mxCell>
        <mxCell id="YMdylm_ZdaBU3ZXP_qBa-72" value="" style="edgeStyle=orthogonalEdgeStyle;rounded=0;orthogonalLoop=1;jettySize=auto;html=1;" edge="1" parent="WIyWlLk6GJQsqaUBKTNV-1" source="YMdylm_ZdaBU3ZXP_qBa-66" target="YMdylm_ZdaBU3ZXP_qBa-71">
          <mxGeometry relative="1" as="geometry" />
        </mxCell>
        <mxCell id="YMdylm_ZdaBU3ZXP_qBa-66" value="Mark as declined." style="rounded=1;whiteSpace=wrap;html=1;fontSize=12;glass=0;strokeWidth=1;shadow=0;fillColor=#dae8fc;strokeColor=#6c8ebf;" vertex="1" parent="WIyWlLk6GJQsqaUBKTNV-1">
          <mxGeometry x="130" y="1030" width="160" height="60" as="geometry" />
        </mxCell>
        <mxCell id="YMdylm_ZdaBU3ZXP_qBa-70" style="edgeStyle=orthogonalEdgeStyle;rounded=0;orthogonalLoop=1;jettySize=auto;html=1;entryX=0.5;entryY=0;entryDx=0;entryDy=0;exitX=0.5;exitY=1;exitDx=0;exitDy=0;" edge="1" parent="WIyWlLk6GJQsqaUBKTNV-1" source="YMdylm_ZdaBU3ZXP_qBa-55" target="YMdylm_ZdaBU3ZXP_qBa-66">
          <mxGeometry relative="1" as="geometry">
            <mxPoint x="20" y="1020" as="sourcePoint" />
            <mxPoint x="-170" y="1040" as="targetPoint" />
            <Array as="points">
              <mxPoint x="210" y="990" />
            </Array>
          </mxGeometry>
        </mxCell>
        <mxCell id="YMdylm_ZdaBU3ZXP_qBa-91" style="edgeStyle=orthogonalEdgeStyle;rounded=0;orthogonalLoop=1;jettySize=auto;html=1;" edge="1" parent="WIyWlLk6GJQsqaUBKTNV-1" source="YMdylm_ZdaBU3ZXP_qBa-71">
          <mxGeometry relative="1" as="geometry">
            <mxPoint x="210" y="1350" as="targetPoint" />
          </mxGeometry>
        </mxCell>
        <mxCell id="YMdylm_ZdaBU3ZXP_qBa-71" value="Reason for Declining." style="rounded=1;whiteSpace=wrap;html=1;fontSize=12;glass=0;strokeWidth=1;shadow=0;fillColor=#dae8fc;strokeColor=#6c8ebf;" vertex="1" parent="WIyWlLk6GJQsqaUBKTNV-1">
          <mxGeometry x="130" y="1140" width="160" height="60" as="geometry" />
        </mxCell>
        <mxCell id="YMdylm_ZdaBU3ZXP_qBa-73" value="" style="edgeStyle=orthogonalEdgeStyle;rounded=0;orthogonalLoop=1;jettySize=auto;html=1;" edge="1" parent="WIyWlLk6GJQsqaUBKTNV-1" source="YMdylm_ZdaBU3ZXP_qBa-75" target="YMdylm_ZdaBU3ZXP_qBa-77">
          <mxGeometry relative="1" as="geometry" />
        </mxCell>
        <mxCell id="YMdylm_ZdaBU3ZXP_qBa-74" style="edgeStyle=orthogonalEdgeStyle;rounded=0;orthogonalLoop=1;jettySize=auto;html=1;entryX=0.5;entryY=0;entryDx=0;entryDy=0;" edge="1" parent="WIyWlLk6GJQsqaUBKTNV-1" target="YMdylm_ZdaBU3ZXP_qBa-76">
          <mxGeometry relative="1" as="geometry">
            <mxPoint x="660" y="1010" as="sourcePoint" />
            <Array as="points">
              <mxPoint x="660" y="990" />
              <mxPoint x="470" y="990" />
            </Array>
          </mxGeometry>
        </mxCell>
        <mxCell id="YMdylm_ZdaBU3ZXP_qBa-75" value="Save" style="rhombus;whiteSpace=wrap;html=1;shadow=0;fontFamily=Helvetica;fontSize=12;align=center;strokeWidth=1;spacing=6;spacingTop=-4;fillColor=#f8cecc;strokeColor=#b85450;" vertex="1" parent="WIyWlLk6GJQsqaUBKTNV-1">
          <mxGeometry x="590" y="910" width="140" height="80" as="geometry" />
        </mxCell>
        <mxCell id="YMdylm_ZdaBU3ZXP_qBa-88" style="edgeStyle=orthogonalEdgeStyle;rounded=0;orthogonalLoop=1;jettySize=auto;html=1;" edge="1" parent="WIyWlLk6GJQsqaUBKTNV-1" source="YMdylm_ZdaBU3ZXP_qBa-76">
          <mxGeometry relative="1" as="geometry">
            <mxPoint x="470" y="1350" as="targetPoint" />
          </mxGeometry>
        </mxCell>
        <mxCell id="YMdylm_ZdaBU3ZXP_qBa-76" value="Save as In-house&amp;nbsp;" style="rounded=1;whiteSpace=wrap;html=1;fontSize=12;glass=0;strokeWidth=1;shadow=0;fillColor=#dae8fc;strokeColor=#6c8ebf;" vertex="1" parent="WIyWlLk6GJQsqaUBKTNV-1">
          <mxGeometry x="410" y="1030" width="120" height="60" as="geometry" />
        </mxCell>
        <mxCell id="YMdylm_ZdaBU3ZXP_qBa-89" style="edgeStyle=orthogonalEdgeStyle;rounded=0;orthogonalLoop=1;jettySize=auto;html=1;" edge="1" parent="WIyWlLk6GJQsqaUBKTNV-1" source="YMdylm_ZdaBU3ZXP_qBa-77">
          <mxGeometry relative="1" as="geometry">
            <mxPoint x="660" y="1350" as="targetPoint" />
          </mxGeometry>
        </mxCell>
        <mxCell id="YMdylm_ZdaBU3ZXP_qBa-77" value="Mark as incomplete." style="rounded=1;whiteSpace=wrap;html=1;fontSize=12;glass=0;strokeWidth=1;shadow=0;fillColor=#dae8fc;strokeColor=#6c8ebf;" vertex="1" parent="WIyWlLk6GJQsqaUBKTNV-1">
          <mxGeometry x="585" y="1030" width="150" height="60" as="geometry" />
        </mxCell>
        <mxCell id="YMdylm_ZdaBU3ZXP_qBa-78" value="" style="edgeStyle=orthogonalEdgeStyle;rounded=0;orthogonalLoop=1;jettySize=auto;html=1;" edge="1" parent="WIyWlLk6GJQsqaUBKTNV-1" source="YMdylm_ZdaBU3ZXP_qBa-79" target="YMdylm_ZdaBU3ZXP_qBa-81">
          <mxGeometry relative="1" as="geometry" />
        </mxCell>
        <mxCell id="YMdylm_ZdaBU3ZXP_qBa-79" value="Mark as declined." style="rounded=1;whiteSpace=wrap;html=1;fontSize=12;glass=0;strokeWidth=1;shadow=0;fillColor=#dae8fc;strokeColor=#6c8ebf;" vertex="1" parent="WIyWlLk6GJQsqaUBKTNV-1">
          <mxGeometry x="780" y="1030" width="160" height="60" as="geometry" />
        </mxCell>
        <mxCell id="YMdylm_ZdaBU3ZXP_qBa-80" style="edgeStyle=orthogonalEdgeStyle;rounded=0;orthogonalLoop=1;jettySize=auto;html=1;entryX=0.5;entryY=0;entryDx=0;entryDy=0;exitX=0.5;exitY=1;exitDx=0;exitDy=0;" edge="1" parent="WIyWlLk6GJQsqaUBKTNV-1" source="YMdylm_ZdaBU3ZXP_qBa-75" target="YMdylm_ZdaBU3ZXP_qBa-79">
          <mxGeometry relative="1" as="geometry">
            <mxPoint x="670" y="1020" as="sourcePoint" />
            <mxPoint x="480" y="1040" as="targetPoint" />
            <Array as="points">
              <mxPoint x="860" y="990" />
            </Array>
          </mxGeometry>
        </mxCell>
        <mxCell id="YMdylm_ZdaBU3ZXP_qBa-86" style="edgeStyle=orthogonalEdgeStyle;rounded=0;orthogonalLoop=1;jettySize=auto;html=1;entryX=1;entryY=0.5;entryDx=0;entryDy=0;" edge="1" parent="WIyWlLk6GJQsqaUBKTNV-1" source="YMdylm_ZdaBU3ZXP_qBa-81" target="YMdylm_ZdaBU3ZXP_qBa-83">
          <mxGeometry relative="1" as="geometry">
            <Array as="points">
              <mxPoint x="860" y="1345" />
            </Array>
          </mxGeometry>
        </mxCell>
        <mxCell id="YMdylm_ZdaBU3ZXP_qBa-81" value="Reason for Declining." style="rounded=1;whiteSpace=wrap;html=1;fontSize=12;glass=0;strokeWidth=1;shadow=0;fillColor=#dae8fc;strokeColor=#6c8ebf;" vertex="1" parent="WIyWlLk6GJQsqaUBKTNV-1">
          <mxGeometry x="780" y="1140" width="160" height="60" as="geometry" />
        </mxCell>
        <mxCell id="YMdylm_ZdaBU3ZXP_qBa-83" value="END" style="ellipse;whiteSpace=wrap;html=1;fillColor=#d5e8d4;strokeColor=#125916;" vertex="1" parent="WIyWlLk6GJQsqaUBKTNV-1">
          <mxGeometry x="300" y="1320" width="100" height="50" as="geometry" />
        </mxCell>
        <mxCell id="YMdylm_ZdaBU3ZXP_qBa-92" value="&lt;b&gt;&lt;font style=&quot;font-size: 18px;&quot;&gt;1&lt;/font&gt;&lt;/b&gt;" style="text;html=1;strokeColor=none;fillColor=none;align=center;verticalAlign=middle;whiteSpace=wrap;rounded=0;" vertex="1" parent="WIyWlLk6GJQsqaUBKTNV-1">
          <mxGeometry x="280" y="130" width="60" height="30" as="geometry" />
        </mxCell>
        <mxCell id="YMdylm_ZdaBU3ZXP_qBa-93" value="&lt;b&gt;&lt;font style=&quot;font-size: 18px;&quot;&gt;2&lt;/font&gt;&lt;/b&gt;" style="text;html=1;strokeColor=none;fillColor=none;align=center;verticalAlign=middle;whiteSpace=wrap;rounded=0;" vertex="1" parent="WIyWlLk6GJQsqaUBKTNV-1">
          <mxGeometry x="110" y="210" width="60" height="30" as="geometry" />
        </mxCell>
        <mxCell id="YMdylm_ZdaBU3ZXP_qBa-94" value="&lt;b&gt;&lt;font style=&quot;font-size: 18px;&quot;&gt;3&lt;/font&gt;&lt;/b&gt;" style="text;html=1;strokeColor=none;fillColor=none;align=center;verticalAlign=middle;whiteSpace=wrap;rounded=0;" vertex="1" parent="WIyWlLk6GJQsqaUBKTNV-1">
          <mxGeometry x="120" y="320" width="60" height="30" as="geometry" />
        </mxCell>
        <mxCell id="YMdylm_ZdaBU3ZXP_qBa-95" value="&lt;b&gt;&lt;font style=&quot;font-size: 18px;&quot;&gt;4&lt;/font&gt;&lt;/b&gt;" style="text;html=1;strokeColor=none;fillColor=none;align=center;verticalAlign=middle;whiteSpace=wrap;rounded=0;" vertex="1" parent="WIyWlLk6GJQsqaUBKTNV-1">
          <mxGeometry y="380" width="60" height="30" as="geometry" />
        </mxCell>
        <mxCell id="YMdylm_ZdaBU3ZXP_qBa-96" value="&lt;b&gt;&lt;font style=&quot;font-size: 18px;&quot;&gt;5&lt;/font&gt;&lt;/b&gt;" style="text;html=1;strokeColor=none;fillColor=none;align=center;verticalAlign=middle;whiteSpace=wrap;rounded=0;" vertex="1" parent="WIyWlLk6GJQsqaUBKTNV-1">
          <mxGeometry x="-170" y="420" width="60" height="30" as="geometry" />
        </mxCell>
        <mxCell id="YMdylm_ZdaBU3ZXP_qBa-97" value="&lt;b&gt;&lt;font style=&quot;font-size: 18px;&quot;&gt;6&lt;/font&gt;&lt;/b&gt;" style="text;html=1;strokeColor=none;fillColor=none;align=center;verticalAlign=middle;whiteSpace=wrap;rounded=0;" vertex="1" parent="WIyWlLk6GJQsqaUBKTNV-1">
          <mxGeometry x="-30" y="500" width="60" height="30" as="geometry" />
        </mxCell>
        <mxCell id="YMdylm_ZdaBU3ZXP_qBa-99" value="&lt;b&gt;&lt;font style=&quot;font-size: 18px;&quot;&gt;12&lt;/font&gt;&lt;/b&gt;" style="text;html=1;strokeColor=none;fillColor=none;align=center;verticalAlign=middle;whiteSpace=wrap;rounded=0;" vertex="1" parent="WIyWlLk6GJQsqaUBKTNV-1">
          <mxGeometry x="340" y="480" width="60" height="30" as="geometry" />
        </mxCell>
        <mxCell id="YMdylm_ZdaBU3ZXP_qBa-100" value="&lt;b&gt;&lt;font style=&quot;font-size: 18px;&quot;&gt;13&lt;/font&gt;&lt;/b&gt;" style="text;html=1;strokeColor=none;fillColor=none;align=center;verticalAlign=middle;whiteSpace=wrap;rounded=0;" vertex="1" parent="WIyWlLk6GJQsqaUBKTNV-1">
          <mxGeometry x="350" y="569.5" width="60" height="30" as="geometry" />
        </mxCell>
        <mxCell id="YMdylm_ZdaBU3ZXP_qBa-101" value="&lt;b&gt;&lt;font style=&quot;font-size: 18px;&quot;&gt;14&lt;/font&gt;&lt;/b&gt;" style="text;html=1;strokeColor=none;fillColor=none;align=center;verticalAlign=middle;whiteSpace=wrap;rounded=0;" vertex="1" parent="WIyWlLk6GJQsqaUBKTNV-1">
          <mxGeometry x="353" y="650" width="60" height="30" as="geometry" />
        </mxCell>
        <mxCell id="YMdylm_ZdaBU3ZXP_qBa-102" value="&lt;b&gt;&lt;font style=&quot;font-size: 18px;&quot;&gt;15&lt;/font&gt;&lt;/b&gt;" style="text;html=1;strokeColor=none;fillColor=none;align=center;verticalAlign=middle;whiteSpace=wrap;rounded=0;" vertex="1" parent="WIyWlLk6GJQsqaUBKTNV-1">
          <mxGeometry x="353" y="730" width="60" height="30" as="geometry" />
        </mxCell>
        <mxCell id="YMdylm_ZdaBU3ZXP_qBa-103" value="&lt;b&gt;&lt;font style=&quot;font-size: 18px;&quot;&gt;7&lt;/font&gt;&lt;/b&gt;" style="text;html=1;strokeColor=none;fillColor=none;align=center;verticalAlign=middle;whiteSpace=wrap;rounded=0;" vertex="1" parent="WIyWlLk6GJQsqaUBKTNV-1">
          <mxGeometry x="580" y="220" width="60" height="30" as="geometry" />
        </mxCell>
        <mxCell id="YMdylm_ZdaBU3ZXP_qBa-104" value="&lt;b&gt;&lt;font style=&quot;font-size: 18px;&quot;&gt;8&lt;/font&gt;&lt;/b&gt;" style="text;html=1;strokeColor=none;fillColor=none;align=center;verticalAlign=middle;whiteSpace=wrap;rounded=0;" vertex="1" parent="WIyWlLk6GJQsqaUBKTNV-1">
          <mxGeometry x="585" y="320" width="60" height="30" as="geometry" />
        </mxCell>
        <mxCell id="YMdylm_ZdaBU3ZXP_qBa-105" value="&lt;b&gt;&lt;font style=&quot;font-size: 18px;&quot;&gt;9&lt;/font&gt;&lt;/b&gt;" style="text;html=1;strokeColor=none;fillColor=none;align=center;verticalAlign=middle;whiteSpace=wrap;rounded=0;" vertex="1" parent="WIyWlLk6GJQsqaUBKTNV-1">
          <mxGeometry x="645" y="380" width="60" height="30" as="geometry" />
        </mxCell>
        <mxCell id="YMdylm_ZdaBU3ZXP_qBa-106" value="&lt;b&gt;&lt;font style=&quot;font-size: 18px;&quot;&gt;10&lt;/font&gt;&lt;/b&gt;" style="text;html=1;strokeColor=none;fillColor=none;align=center;verticalAlign=middle;whiteSpace=wrap;rounded=0;" vertex="1" parent="WIyWlLk6GJQsqaUBKTNV-1">
          <mxGeometry x="827" y="420" width="60" height="30" as="geometry" />
        </mxCell>
        <mxCell id="YMdylm_ZdaBU3ZXP_qBa-107" value="&lt;b&gt;&lt;font style=&quot;font-size: 18px;&quot;&gt;11&lt;/font&gt;&lt;/b&gt;" style="text;html=1;strokeColor=none;fillColor=none;align=center;verticalAlign=middle;whiteSpace=wrap;rounded=0;" vertex="1" parent="WIyWlLk6GJQsqaUBKTNV-1">
          <mxGeometry x="645" y="500" width="60" height="30" as="geometry" />
        </mxCell>
        <mxCell id="YMdylm_ZdaBU3ZXP_qBa-108" value="&lt;b&gt;&lt;font style=&quot;font-size: 18px;&quot;&gt;16&lt;/font&gt;&lt;/b&gt;" style="text;html=1;strokeColor=none;fillColor=none;align=center;verticalAlign=middle;whiteSpace=wrap;rounded=0;" vertex="1" parent="WIyWlLk6GJQsqaUBKTNV-1">
          <mxGeometry x="20" y="800" width="60" height="30" as="geometry" />
        </mxCell>
        <mxCell id="YMdylm_ZdaBU3ZXP_qBa-109" value="&lt;b&gt;&lt;font style=&quot;font-size: 18px;&quot;&gt;17&lt;/font&gt;&lt;/b&gt;" style="text;html=1;strokeColor=none;fillColor=none;align=center;verticalAlign=middle;whiteSpace=wrap;rounded=0;" vertex="1" parent="WIyWlLk6GJQsqaUBKTNV-1">
          <mxGeometry x="20" y="890" width="60" height="30" as="geometry" />
        </mxCell>
        <mxCell id="YMdylm_ZdaBU3ZXP_qBa-110" value="&lt;b&gt;&lt;font style=&quot;font-size: 18px;&quot;&gt;18&lt;/font&gt;&lt;/b&gt;" style="text;html=1;strokeColor=none;fillColor=none;align=center;verticalAlign=middle;whiteSpace=wrap;rounded=0;" vertex="1" parent="WIyWlLk6GJQsqaUBKTNV-1">
          <mxGeometry x="-180" y="1000" width="60" height="30" as="geometry" />
        </mxCell>
        <mxCell id="YMdylm_ZdaBU3ZXP_qBa-111" value="&lt;span style=&quot;font-size: 18px;&quot;&gt;&lt;b&gt;19&lt;/b&gt;&lt;/span&gt;" style="text;html=1;strokeColor=none;fillColor=none;align=center;verticalAlign=middle;whiteSpace=wrap;rounded=0;" vertex="1" parent="WIyWlLk6GJQsqaUBKTNV-1">
          <mxGeometry x="-60" y="1000" width="60" height="30" as="geometry" />
        </mxCell>
        <mxCell id="YMdylm_ZdaBU3ZXP_qBa-112" value="&lt;span style=&quot;font-size: 18px;&quot;&gt;&lt;b&gt;20&lt;/b&gt;&lt;/span&gt;" style="text;html=1;strokeColor=none;fillColor=none;align=center;verticalAlign=middle;whiteSpace=wrap;rounded=0;" vertex="1" parent="WIyWlLk6GJQsqaUBKTNV-1">
          <mxGeometry x="150" y="1000" width="60" height="30" as="geometry" />
        </mxCell>
        <mxCell id="YMdylm_ZdaBU3ZXP_qBa-113" value="&lt;span style=&quot;font-size: 18px;&quot;&gt;&lt;b&gt;21&lt;/b&gt;&lt;/span&gt;" style="text;html=1;strokeColor=none;fillColor=none;align=center;verticalAlign=middle;whiteSpace=wrap;rounded=0;" vertex="1" parent="WIyWlLk6GJQsqaUBKTNV-1">
          <mxGeometry x="150" y="1110" width="60" height="30" as="geometry" />
        </mxCell>
        <mxCell id="YMdylm_ZdaBU3ZXP_qBa-114" value="&lt;b&gt;&lt;font style=&quot;font-size: 18px;&quot;&gt;22&lt;/font&gt;&lt;/b&gt;" style="text;html=1;strokeColor=none;fillColor=none;align=center;verticalAlign=middle;whiteSpace=wrap;rounded=0;" vertex="1" parent="WIyWlLk6GJQsqaUBKTNV-1">
          <mxGeometry x="670" y="800" width="60" height="30" as="geometry" />
        </mxCell>
        <mxCell id="YMdylm_ZdaBU3ZXP_qBa-115" value="&lt;b&gt;&lt;font style=&quot;font-size: 18px;&quot;&gt;23&lt;/font&gt;&lt;/b&gt;" style="text;html=1;strokeColor=none;fillColor=none;align=center;verticalAlign=middle;whiteSpace=wrap;rounded=0;" vertex="1" parent="WIyWlLk6GJQsqaUBKTNV-1">
          <mxGeometry x="670" y="890" width="60" height="30" as="geometry" />
        </mxCell>
        <mxCell id="YMdylm_ZdaBU3ZXP_qBa-116" value="&lt;b&gt;&lt;font style=&quot;font-size: 18px;&quot;&gt;24&lt;/font&gt;&lt;/b&gt;" style="text;html=1;strokeColor=none;fillColor=none;align=center;verticalAlign=middle;whiteSpace=wrap;rounded=0;" vertex="1" parent="WIyWlLk6GJQsqaUBKTNV-1">
          <mxGeometry x="470" y="1000" width="60" height="30" as="geometry" />
        </mxCell>
        <mxCell id="YMdylm_ZdaBU3ZXP_qBa-117" value="&lt;b&gt;&lt;font style=&quot;font-size: 18px;&quot;&gt;25&lt;/font&gt;&lt;/b&gt;" style="text;html=1;strokeColor=none;fillColor=none;align=center;verticalAlign=middle;whiteSpace=wrap;rounded=0;" vertex="1" parent="WIyWlLk6GJQsqaUBKTNV-1">
          <mxGeometry x="600" y="1000" width="60" height="30" as="geometry" />
        </mxCell>
        <mxCell id="YMdylm_ZdaBU3ZXP_qBa-118" value="&lt;b&gt;&lt;font style=&quot;font-size: 18px;&quot;&gt;26&lt;/font&gt;&lt;/b&gt;" style="text;html=1;strokeColor=none;fillColor=none;align=center;verticalAlign=middle;whiteSpace=wrap;rounded=0;" vertex="1" parent="WIyWlLk6GJQsqaUBKTNV-1">
          <mxGeometry x="790" y="1000" width="60" height="30" as="geometry" />
        </mxCell>
        <mxCell id="YMdylm_ZdaBU3ZXP_qBa-119" value="&lt;b&gt;&lt;font style=&quot;font-size: 18px;&quot;&gt;27&lt;/font&gt;&lt;/b&gt;" style="text;html=1;strokeColor=none;fillColor=none;align=center;verticalAlign=middle;whiteSpace=wrap;rounded=0;" vertex="1" parent="WIyWlLk6GJQsqaUBKTNV-1">
          <mxGeometry x="790" y="1100" width="60" height="30" as="geometry" />
        </mxCell>
        <mxCell id="YMdylm_ZdaBU3ZXP_qBa-120" value="&lt;b&gt;&lt;font style=&quot;font-size: 18px;&quot;&gt;28&lt;/font&gt;&lt;/b&gt;" style="text;html=1;strokeColor=none;fillColor=none;align=center;verticalAlign=middle;whiteSpace=wrap;rounded=0;" vertex="1" parent="WIyWlLk6GJQsqaUBKTNV-1">
          <mxGeometry x="320" y="1290" width="60" height="30" as="geometry" />
        </mxCell>
      </root>
    </mxGraphModel>
  </diagram>
</mxfile>
